<svg width="211" height="65" viewBox="0 0 211 65" fill="none" xmlns="http://www.w3.org/2000/svg">
<path fill-rule="evenodd" clip-rule="evenodd" d="M30.0541 30.9705C32.7944 27.4682 37.1826 25.1993 42.1285 25.1993C47.1035 25.1993 51.5141 27.495 54.2511 31.0324C54.1346 31.1462 54.0285 31.2642 53.9325 31.382C53.4311 31.9988 53.0539 32.7934 52.7517 33.6003C52.1431 35.2231 51.6789 37.3429 51.2491 39.3278L51.2109 39.5063C50.7821 41.4876 50.3835 43.3303 49.9016 44.6982C49.6851 45.3127 49.4797 45.7472 49.2977 46.0254C49.1077 45.7449 48.8921 45.3052 48.6639 44.6818C48.1485 43.2747 47.7149 41.3607 47.2554 39.317L47.2405 39.2501V39.25C46.7989 37.2871 46.3304 35.2043 45.7463 33.61C45.4529 32.8091 45.0928 32.0225 44.6219 31.4113C44.1598 30.8116 43.3904 30.1347 42.2652 30.1347C41.1471 30.1347 40.3743 30.8042 39.9054 31.3972C39.4254 32.0045 39.0512 32.7878 38.7429 33.5891C38.122 35.2026 37.6145 37.3133 37.1421 39.301L37.0933 39.5063C36.6255 41.4753 36.1883 43.3162 35.6919 44.6867C35.5024 45.21 35.3236 45.6083 35.1617 45.8927C35.0035 45.6096 34.8292 45.214 34.6449 44.6951C34.1687 43.3538 33.7515 41.5644 33.3035 39.6426L33.2251 39.3063C32.7608 37.3174 32.2572 35.2029 31.6275 33.5843C31.3147 32.7801 30.932 31.9928 30.4368 31.3828C30.3247 31.2447 30.1973 31.1045 30.0541 30.9705ZM28.3955 33.6596C28.526 33.9045 28.6641 34.208 28.8069 34.575C29.3519 35.976 29.8137 37.8877 30.2891 39.9249L30.3817 40.3219C30.8146 42.1807 31.265 44.1144 31.7954 45.6083C32.0776 46.4028 32.4183 47.181 32.8564 47.7858C33.2708 48.3578 34.0142 49.0967 35.1573 49.0967C36.2971 49.0967 37.0422 48.3614 37.4594 47.792C37.9014 47.1886 38.2477 46.4112 38.5355 45.6162C39.0873 44.0927 39.5571 42.1138 40.0067 40.2199V40.2198L40.0755 39.9303C40.5599 37.8918 41.0262 35.9763 41.5673 34.5702C41.8179 33.9187 42.0526 33.4649 42.2569 33.1833C42.4505 33.4625 42.6717 33.9091 42.9063 34.5493C43.4219 35.9566 43.855 37.8705 44.3146 39.9142L44.3297 39.9811C44.7712 41.9441 45.2397 44.027 45.8237 45.6211C46.1172 46.4223 46.4773 47.2089 46.9482 47.8199C47.4104 48.4198 48.1797 49.0967 49.3046 49.0967C50.4357 49.0967 51.2021 48.4136 51.6588 47.8084C52.1226 47.1943 52.4714 46.405 52.7531 45.6052C53.2946 44.0687 53.7251 42.0752 54.1356 40.1788V40.1787L54.1944 39.9034C54.6365 37.8622 55.0607 35.9558 55.5846 34.559C55.698 34.2551 55.8099 33.996 55.9164 33.7784C56.7192 35.5265 57.1644 37.4567 57.1644 39.4857C57.1644 47.3757 50.4329 53.7721 42.1285 53.7721C33.8244 53.7721 27.0925 47.3757 27.0925 39.4857C27.0925 37.4106 27.5581 35.4388 28.3955 33.6596ZM42.1285 22.342C32.1636 22.342 24.0853 30.0175 24.0853 39.4857C24.0853 48.9538 32.1636 56.6292 42.1285 56.6292C52.0938 56.6292 60.1716 48.9538 60.1716 39.4857C60.1716 30.0175 52.0938 22.342 42.1285 22.342ZM42.4723 32.9442C42.4723 32.9445 42.4688 32.9472 42.4617 32.9511C42.4687 32.9458 42.4723 32.9438 42.4723 32.9442ZM42.0567 32.9461C42.0497 32.9421 42.0462 32.9393 42.0462 32.9389C42.0462 32.9385 42.0497 32.9406 42.0567 32.9461ZM49.076 46.2966C49.076 46.2966 49.0793 46.2935 49.0858 46.2896C49.0793 46.2949 49.076 46.2971 49.076 46.2966ZM49.5132 46.2851C49.5202 46.2891 49.5239 46.2918 49.5239 46.2922C49.5239 46.2926 49.5202 46.2904 49.5132 46.2851ZM34.8491 46.3223C34.8491 46.3218 34.8534 46.3178 34.8621 46.3121C34.8535 46.3196 34.8491 46.3227 34.8491 46.3223ZM35.4581 46.3148C35.4667 46.3205 35.4711 46.3245 35.4711 46.3249C35.471 46.3254 35.4666 46.3227 35.4581 46.3148Z" fill="#81818B"/>
<path d="M70.1345 49.6351L65.7592 35.4144H69.5917L72.1867 45.6498L75.2039 35.4144H79.489L82.5067 45.6498L85.1317 35.4144H88.9642L84.5584 49.6351H80.5453L77.3464 38.9982L74.1481 49.6351H70.1345Z" fill="#81818B"/>
<path d="M94.5875 49.9793C93.3002 49.9793 92.2439 49.7877 91.4191 49.4055C90.5948 49.0042 89.9811 48.4786 89.5784 47.8287C89.1763 47.1788 88.9752 46.4621 88.9752 45.6785C88.9752 44.3597 89.5181 43.2893 90.6043 42.4674C91.6905 41.6455 93.3206 41.2346 95.4931 41.2346H99.2952V40.8905C99.2952 39.9157 99.0032 39.199 98.42 38.7402C97.8367 38.2815 97.1122 38.0522 96.2475 38.0522C95.4626 38.0522 94.7786 38.2337 94.1953 38.5969C93.612 38.9409 93.2498 39.457 93.1091 40.1451H89.337C89.4378 39.113 89.8 38.2146 90.4232 37.45C91.0674 36.6855 91.8921 36.1025 92.8975 35.7012C93.9039 35.2807 95.0301 35.0704 96.2775 35.0704C98.41 35.0704 100.089 35.5769 101.317 36.5899C102.544 37.603 103.158 39.0366 103.158 40.8905V49.6351H99.8679L99.5062 47.3416C99.0636 48.1061 98.4399 48.7366 97.6356 49.2338C96.8507 49.7306 95.8349 49.9793 94.5875 49.9793ZM95.4626 47.112C96.5693 47.112 97.424 46.7678 98.0273 46.0798C98.651 45.3919 99.0437 44.5411 99.2048 43.5282H95.9152C94.8893 43.5282 94.1554 43.7098 93.7123 44.0729C93.2702 44.4168 93.0487 44.8472 93.0487 45.3631C93.0487 45.9175 93.2702 46.3475 93.7123 46.6532C94.1554 46.9589 94.7381 47.112 95.4626 47.112Z" fill="#81818B"/>
<path d="M109.238 49.6351L103.746 35.4144H107.789L111.591 46.1661L115.393 35.4144H119.437L113.915 49.6351H109.238Z" fill="#81818B"/>
<path d="M127.201 49.9793C125.693 49.9793 124.355 49.6732 123.188 49.0617C122.021 48.4498 121.106 47.5898 120.442 46.4811C119.778 45.3728 119.447 44.092 119.447 42.6394C119.447 41.1677 119.768 39.8584 120.412 38.7116C121.076 37.5648 121.981 36.676 123.128 36.0452C124.294 35.3954 125.662 35.0704 127.231 35.0704C128.7 35.0704 129.998 35.3762 131.124 35.9879C132.25 36.5995 133.126 37.4405 133.749 38.5109C134.393 39.5621 134.715 40.7376 134.715 42.0373C134.715 42.2476 134.705 42.4674 134.685 42.6967C134.685 42.9262 134.674 43.165 134.654 43.4135H123.279C123.359 44.5221 123.762 45.3919 124.486 46.0228C125.23 46.6532 126.125 46.9687 127.172 46.9687C127.955 46.9687 128.609 46.8063 129.132 46.4811C129.675 46.1373 130.078 45.6976 130.339 45.1622H134.262C133.981 46.0608 133.508 46.8828 132.844 47.6283C132.2 48.3543 131.396 48.9277 130.43 49.3484C129.485 49.7687 128.408 49.9793 127.201 49.9793ZM127.231 38.0522C126.286 38.0522 125.451 38.3102 124.727 38.8262C124.003 39.3232 123.54 40.0878 123.338 41.1199H130.792C130.732 40.1833 130.37 39.4379 129.706 38.8836C129.042 38.3293 128.217 38.0522 127.231 38.0522Z" fill="#81818B"/>
<path d="M136.756 49.635V28.9922H140.619V49.635H136.756Z" fill="#81818B"/>
<path d="M150.63 49.9793C149.122 49.9793 147.784 49.6732 146.617 49.0617C145.45 48.4498 144.535 47.5898 143.871 46.4811C143.207 45.3728 142.876 44.092 142.876 42.6394C142.876 41.1677 143.198 39.8584 143.841 38.7116C144.505 37.5648 145.41 36.676 146.557 36.0452C147.724 35.3954 149.091 35.0704 150.661 35.0704C152.129 35.0704 153.427 35.3762 154.553 35.9879C155.68 36.5995 156.555 37.4405 157.178 38.5109C157.822 39.5621 158.144 40.7376 158.144 42.0373C158.144 42.2476 158.134 42.4674 158.114 42.6967C158.114 42.9262 158.103 43.165 158.084 43.4135H146.708C146.788 44.5221 147.191 45.3919 147.915 46.0228C148.659 46.6532 149.554 46.9687 150.601 46.9687C151.385 46.9687 152.039 46.8063 152.562 46.4811C153.105 46.1373 153.507 45.6976 153.769 45.1622H157.692C157.41 46.0608 156.937 46.8828 156.273 47.6283C155.629 48.3543 154.825 48.9277 153.859 49.3484C152.914 49.7687 151.838 49.9793 150.63 49.9793ZM150.661 38.0522C149.716 38.0522 148.88 38.3102 148.156 38.8262C147.432 39.3232 146.969 40.0878 146.768 41.1199H154.221C154.161 40.1833 153.799 39.4379 153.135 38.8836C152.471 38.3293 151.647 38.0522 150.661 38.0522Z" fill="#81818B"/>
<path d="M166.372 49.9793C165.044 49.9793 163.877 49.7784 162.872 49.3772C161.865 48.9564 161.06 48.3831 160.457 47.6566C159.854 46.9306 159.492 46.0896 159.371 45.134H163.263C163.384 45.6878 163.706 46.1661 164.229 46.5674C164.772 46.9496 165.466 47.1408 166.311 47.1408C167.156 47.1408 167.77 46.9784 168.151 46.6532C168.554 46.3285 168.755 45.9555 168.755 45.5352C168.755 44.9234 168.474 44.5124 167.911 44.3022C167.347 44.0729 166.562 43.8532 165.556 43.6429C164.913 43.5091 164.26 43.3466 163.596 43.1555C162.931 42.9644 162.318 42.7254 161.755 42.4388C161.212 42.1329 160.769 41.7506 160.427 41.2919C160.085 40.814 159.914 40.2311 159.914 39.543C159.914 38.2815 160.437 37.2207 161.483 36.3606C162.549 35.5005 164.038 35.0704 165.949 35.0704C167.719 35.0704 169.127 35.4622 170.173 36.2459C171.24 37.0296 171.873 38.1095 172.075 39.4857H168.423C168.202 38.4344 167.367 37.9088 165.919 37.9088C165.195 37.9088 164.631 38.0426 164.229 38.3102C163.847 38.5778 163.656 38.9122 163.656 39.3136C163.656 39.7342 163.947 40.0686 164.531 40.3171C165.114 40.5656 165.889 40.7949 166.854 41.0052C167.9 41.2346 168.856 41.4926 169.721 41.7793C170.606 42.0469 171.31 42.4579 171.833 43.0122C172.356 43.5473 172.618 44.3212 172.618 45.3343C172.638 46.2139 172.396 47.0067 171.894 47.7141C171.391 48.4211 170.667 48.9754 169.721 49.3772C168.776 49.7784 167.659 49.9793 166.372 49.9793Z" fill="#81818B"/>
<path d="M181.018 49.9793C179.69 49.9793 178.523 49.7784 177.518 49.3772C176.512 48.9564 175.707 48.3831 175.104 47.6566C174.5 46.9306 174.138 46.0896 174.018 45.134H177.91C178.031 45.6878 178.353 46.1661 178.876 46.5674C179.419 46.9496 180.113 47.1408 180.958 47.1408C181.803 47.1408 182.416 46.9784 182.798 46.6532C183.201 46.3285 183.402 45.9555 183.402 45.5352C183.402 44.9234 183.12 44.5124 182.557 44.3022C181.994 44.0729 181.209 43.8532 180.203 43.6429C179.56 43.5091 178.906 43.3466 178.242 43.1555C177.578 42.9644 176.965 42.7254 176.401 42.4388C175.858 42.1329 175.415 41.7506 175.074 41.2919C174.731 40.814 174.561 40.2311 174.561 39.543C174.561 38.2815 175.084 37.2207 176.13 36.3606C177.196 35.5005 178.685 35.0704 180.596 35.0704C182.366 35.0704 183.774 35.4622 184.82 36.2459C185.886 37.0296 186.52 38.1095 186.721 39.4857H183.07C182.849 38.4344 182.014 37.9088 180.566 37.9088C179.841 37.9088 179.278 38.0426 178.876 38.3102C178.493 38.5778 178.302 38.9122 178.302 39.3136C178.302 39.7342 178.594 40.0686 179.178 40.3171C179.761 40.5656 180.535 40.7949 181.501 41.0052C182.547 41.2346 183.502 41.4926 184.368 41.7793C185.253 42.0469 185.957 42.4579 186.48 43.0122C187.003 43.5473 187.265 44.3212 187.265 45.3343C187.285 46.2139 187.043 47.0067 186.54 47.7141C186.037 48.4211 185.313 48.9754 184.368 49.3772C183.422 49.7784 182.305 49.9793 181.018 49.9793Z" fill="#81818B"/>
</svg>
